# xmcd CD database file
#
# Track frame offsets:
#	150
#	15265
#	36545
#	57715
#	69177
#	87215
#	95475
#	114532
#	127625
#	161590
#
# Disc length: 2448 seconds
#
# Revision: 4
# Processed by: cddbd v1.5.1PL0 Copyright (c) Steve Scherf et al.
# Submitted via: CDex 1.51
#
DISCID=78098e0a
DTITLE=Jeff Beck - Truth
DYEAR=1969
DGENRE=Rock
TTITLE0=Shapes Of Things
TTITLE1=Let Me Love You
TTITLE2=Morning Dew
TTITLE3=You Shook Me
TTITLE4=Ol' Man River
TTITLE5=Greensleeves
TTITLE6=Rock My Plimsoul
TTITLE7=Beck's Bolero
TTITLE8=Blues De Luxe
TTITLE9=I Ain't Superstitious
EXTD=Guitar:  Jeff Beck\nVocals:  Rod Stewart\nBass:  Ron Wood\nDrums: Mick Waller\n\nJeff Beck, Bass, on "Ol' Man River"\nJ.P. Jones, Hammond Organ, on "Ol' Man River"\nTimpani by "You Know Who"\nNicky Hopkins, Piano, on "Morning Dew"\nand "Blues De Lux
EXTD=e"\n\nProduced by Mickey Most\n\nEp YEAR: 1969
EXTT0=
EXTT1=
EXTT2=
EXTT3=
EXTT4=
EXTT5=
EXTT6=
EXTT7=
EXTT8=
EXTT9=
PLAYORDER=
